# xmcd CD database file generated by OrangeCD 6.2
#
# Track frame offsets:
#	183
#	17160
#	26413
#
# Disc length: 632 seconds
#
# Revision: 1
# Processed by: cddbd v1.5.2PL0 Copyright (c) Steve Scherf et al.
# Submitted via: OrangeCD 6.2
#
DISCID=18027603
DTITLE=Bruce Dickinson - All The Young Dudes
DYEAR=1990
DGENRE=Hard Rock
TTITLE0=All The Young Dudes
TTITLE1=Darkness Be My Friend
TTITLE2=Sin City
EXTD=
EXTT0=
EXTT1=
EXTT2=
PLAYORDER=
